<?xml version="1.0" encoding="UTF-8" standalone="no"?>
<!DOCTYPE svg PUBLIC "-//W3C//DTD SVG 1.1//EN"
 "http://www.w3.org/Graphics/SVG/1.1/DTD/svg11.dtd">
<!-- Generated by graphviz version 6.0.2 (20221011.1828)
 -->
<!-- Pages: 1 -->
<svg width="818pt" height="404pt"
 viewBox="0.00 0.00 817.79 404.00" xmlns="http://www.w3.org/2000/svg" xmlns:xlink="http://www.w3.org/1999/xlink">
<g id="graph0" class="graph" transform="scale(1 1) rotate(0) translate(4 400)">
<polygon fill="white" stroke="none" points="-4,4 -4,-400 813.79,-400 813.79,4 -4,4"/>
<!-- [root] aws_instance.example (expand) -->
<g id="node1" class="node">
<title>[root] aws_instance.example (expand)</title>
<polygon fill="none" stroke="black" points="249.4,-180 110.4,-180 110.4,-144 249.4,-144 249.4,-180"/>
<text text-anchor="middle" x="179.9" y="-158.3" font-family="Times,serif" font-size="14.00">aws_instance.example</text>
</g>
<!-- [root] provider[&quot;registry.terraform.io/hashicorp/aws&quot;] -->
<g id="node4" class="node">
<title>[root] provider[&quot;registry.terraform.io/hashicorp/aws&quot;]</title>
<polygon fill="none" stroke="black" points="270.9,-108 18.36,-90 270.9,-72 523.44,-90 270.9,-108"/>
<text text-anchor="middle" x="270.9" y="-86.3" font-family="Times,serif" font-size="14.00">provider[&quot;registry.terraform.io/hashicorp/aws&quot;]</text>
</g>
<!-- [root] aws_instance.example (expand)&#45;&gt;[root] provider[&quot;registry.terraform.io/hashicorp/aws&quot;] -->
<g id="edge1" class="edge">
<title>[root] aws_instance.example (expand)&#45;&gt;[root] provider[&quot;registry.terraform.io/hashicorp/aws&quot;]</title>
<path fill="none" stroke="black" d="M202.4,-143.7C214.48,-134.4 229.51,-122.84 242.41,-112.91"/>
<polygon fill="black" stroke="black" points="244.74,-115.54 250.53,-106.67 240.47,-109.99 244.74,-115.54"/>
</g>
<!-- [root] var.instance_owner -->
<g id="node6" class="node">
<title>[root] var.instance_owner</title>
<polygon fill="none" stroke="black" points="326.9,-36 210.9,-36 210.9,0 332.9,0 332.9,-30 326.9,-36"/>
<polyline fill="none" stroke="black" points="326.9,-36 326.9,-30"/>
<polyline fill="none" stroke="black" points="332.9,-30 326.9,-30"/>
<text text-anchor="middle" x="271.9" y="-14.3" font-family="Times,serif" font-size="14.00">var.instance_owner</text>
</g>
<!-- [root] aws_instance.example (expand)&#45;&gt;[root] var.instance_owner -->
<g id="edge2" class="edge">
<title>[root] aws_instance.example (expand)&#45;&gt;[root] var.instance_owner</title>
<path fill="none" stroke="black" d="M110.34,-150.09C49.32,-137.54 -24.81,-113.18 8.9,-72 32.73,-42.89 131.23,-29.41 200.66,-23.43"/>
<polygon fill="black" stroke="black" points="201,-26.91 210.68,-22.6 200.42,-19.94 201,-26.91"/>
</g>
<!-- [root] aws_volume_attachment.ebs_att (expand) -->
<g id="node2" class="node">
<title>[root] aws_volume_attachment.ebs_att (expand)</title>
<polygon fill="none" stroke="black" points="457.9,-252 263.9,-252 263.9,-216 457.9,-216 457.9,-252"/>
<text text-anchor="middle" x="360.9" y="-230.3" font-family="Times,serif" font-size="14.00">aws_volume_attachment.ebs_att</text>
</g>
<!-- [root] aws_volume_attachment.ebs_att (expand)&#45;&gt;[root] aws_instance.example (expand) -->
<g id="edge3" class="edge">
<title>[root] aws_volume_attachment.ebs_att (expand)&#45;&gt;[root] aws_instance.example (expand)</title>
<path fill="none" stroke="black" d="M316.62,-215.88C291.55,-206.18 260.01,-193.98 233.54,-183.74"/>
<polygon fill="black" stroke="black" points="234.62,-180.41 224.04,-180.07 232.1,-186.94 234.62,-180.41"/>
</g>
<!-- [root] data.aws_ebs_volume.example (expand) -->
<g id="node3" class="node">
<title>[root] data.aws_ebs_volume.example (expand)</title>
<polygon fill="none" stroke="black" points="454.4,-180 267.4,-180 267.4,-144 454.4,-144 454.4,-180"/>
<text text-anchor="middle" x="360.9" y="-158.3" font-family="Times,serif" font-size="14.00">data.aws_ebs_volume.example</text>
</g>
<!-- [root] aws_volume_attachment.ebs_att (expand)&#45;&gt;[root] data.aws_ebs_volume.example (expand) -->
<g id="edge4" class="edge">
<title>[root] aws_volume_attachment.ebs_att (expand)&#45;&gt;[root] data.aws_ebs_volume.example (expand)</title>
<path fill="none" stroke="black" d="M360.9,-215.7C360.9,-207.98 360.9,-198.71 360.9,-190.11"/>
<polygon fill="black" stroke="black" points="364.4,-190.1 360.9,-180.1 357.4,-190.1 364.4,-190.1"/>
</g>
<!-- [root] local.dev_map (expand) -->
<g id="node7" class="node">
<title>[root] local.dev_map (expand)</title>
<ellipse fill="none" stroke="black" cx="590.9" cy="-162" rx="118.88" ry="18"/>
<text text-anchor="middle" x="590.9" y="-158.3" font-family="Times,serif" font-size="14.00">[root] local.dev_map (expand)</text>
</g>
<!-- [root] aws_volume_attachment.ebs_att (expand)&#45;&gt;[root] local.dev_map (expand) -->
<g id="edge5" class="edge">
<title>[root] aws_volume_attachment.ebs_att (expand)&#45;&gt;[root] local.dev_map (expand)</title>
<path fill="none" stroke="black" d="M416.87,-215.97C451.39,-205.46 495.64,-191.99 530.89,-181.27"/>
<polygon fill="black" stroke="black" points="532.02,-184.58 540.57,-178.32 529.99,-177.88 532.02,-184.58"/>
</g>
<!-- [root] data.aws_ebs_volume.example (expand)&#45;&gt;[root] provider[&quot;registry.terraform.io/hashicorp/aws&quot;] -->
<g id="edge7" class="edge">
<title>[root] data.aws_ebs_volume.example (expand)&#45;&gt;[root] provider[&quot;registry.terraform.io/hashicorp/aws&quot;]</title>
<path fill="none" stroke="black" d="M338.65,-143.7C326.7,-134.4 311.83,-122.84 299.08,-112.91"/>
<polygon fill="black" stroke="black" points="301.09,-110.05 291.05,-106.67 296.79,-115.57 301.09,-110.05"/>
</g>
<!-- [root] local.filtered_disks (expand) -->
<g id="node8" class="node">
<title>[root] local.filtered_disks (expand)</title>
<ellipse fill="none" stroke="black" cx="675.9" cy="-90" rx="133.78" ry="18"/>
<text text-anchor="middle" x="675.9" y="-86.3" font-family="Times,serif" font-size="14.00">[root] local.filtered_disks (expand)</text>
</g>
<!-- [root] data.aws_ebs_volume.example (expand)&#45;&gt;[root] local.filtered_disks (expand) -->
<g id="edge6" class="edge">
<title>[root] data.aws_ebs_volume.example (expand)&#45;&gt;[root] local.filtered_disks (expand)</title>
<path fill="none" stroke="black" d="M437.56,-143.97C486.88,-133 550.72,-118.82 599.91,-107.89"/>
<polygon fill="black" stroke="black" points="600.85,-111.26 609.86,-105.68 599.34,-104.43 600.85,-111.26"/>
</g>
<!-- [root] var.disk_info -->
<g id="node5" class="node">
<title>[root] var.disk_info</title>
<polygon fill="none" stroke="black" points="713.9,-36 631.9,-36 631.9,0 719.9,0 719.9,-30 713.9,-36"/>
<polyline fill="none" stroke="black" points="713.9,-36 713.9,-30"/>
<polyline fill="none" stroke="black" points="719.9,-30 713.9,-30"/>
<text text-anchor="middle" x="675.9" y="-14.3" font-family="Times,serif" font-size="14.00">var.disk_info</text>
</g>
<!-- [root] local.filtered_disks (expand)&#45;&gt;[root] var.disk_info -->
<g id="edge8" class="edge">
<title>[root] local.filtered_disks (expand)&#45;&gt;[root] var.disk_info</title>
<path fill="none" stroke="black" d="M675.9,-71.7C675.9,-63.98 675.9,-54.71 675.9,-46.11"/>
<polygon fill="black" stroke="black" points="679.4,-46.1 675.9,-36.1 672.4,-46.1 679.4,-46.1"/>
</g>
<!-- [root] local.filtered_disks (expand)&#45;&gt;[root] var.instance_owner -->
<g id="edge9" class="edge">
<title>[root] local.filtered_disks (expand)&#45;&gt;[root] var.instance_owner</title>
<path fill="none" stroke="black" d="M597.05,-75.34C523.4,-62.58 414.43,-43.7 343.3,-31.37"/>
<polygon fill="black" stroke="black" points="343.53,-27.86 333.08,-29.6 342.34,-34.76 343.53,-27.86"/>
</g>
<!-- [root] provider[&quot;registry.terraform.io/hashicorp/aws&quot;] (close) -->
<g id="node9" class="node">
<title>[root] provider[&quot;registry.terraform.io/hashicorp/aws&quot;] (close)</title>
<ellipse fill="none" stroke="black" cx="360.9" cy="-306" rx="227.46" ry="18"/>
<text text-anchor="middle" x="360.9" y="-302.3" font-family="Times,serif" font-size="14.00">[root] provider[&quot;registry.terraform.io/hashicorp/aws&quot;] (close)</text>
</g>
<!-- [root] provider[&quot;registry.terraform.io/hashicorp/aws&quot;] (close)&#45;&gt;[root] aws_volume_attachment.ebs_att (expand) -->
<g id="edge10" class="edge">
<title>[root] provider[&quot;registry.terraform.io/hashicorp/aws&quot;] (close)&#45;&gt;[root] aws_volume_attachment.ebs_att (expand)</title>
<path fill="none" stroke="black" d="M360.9,-287.7C360.9,-279.98 360.9,-270.71 360.9,-262.11"/>
<polygon fill="black" stroke="black" points="364.4,-262.1 360.9,-252.1 357.4,-262.1 364.4,-262.1"/>
</g>
<!-- [root] root -->
<g id="node10" class="node">
<title>[root] root</title>
<ellipse fill="none" stroke="black" cx="360.9" cy="-378" rx="47.39" ry="18"/>
<text text-anchor="middle" x="360.9" y="-374.3" font-family="Times,serif" font-size="14.00">[root] root</text>
</g>
<!-- [root] root&#45;&gt;[root] provider[&quot;registry.terraform.io/hashicorp/aws&quot;] (close) -->
<g id="edge11" class="edge">
<title>[root] root&#45;&gt;[root] provider[&quot;registry.terraform.io/hashicorp/aws&quot;] (close)</title>
<path fill="none" stroke="black" d="M360.9,-359.7C360.9,-351.98 360.9,-342.71 360.9,-334.11"/>
<polygon fill="black" stroke="black" points="364.4,-334.1 360.9,-324.1 357.4,-334.1 364.4,-334.1"/>
</g>
</g>
</svg>
